<svg width="14" height="14" viewBox="0 0 14 14" fill="none" xmlns="http://www.w3.org/2000/svg">
<path d="M12.0517 4.23501C12.0517 4.19418 11.9933 4.15334 11.9642 4.11251L11.9117 4.05418C11.7759 3.88647 11.6045 3.75099 11.41 3.65751L7.67667 1.90751C7.46997 1.81226 7.24509 1.76294 7.0175 1.76294C6.78991 1.76294 6.56503 1.81226 6.35833 1.90751L2.625 3.65751C2.43148 3.75257 2.26046 3.8878 2.12333 4.05418L2.05333 4.08334C2.0194 4.11842 1.99 4.15762 1.96583 4.20001C1.82667 4.42005 1.7519 4.67466 1.75 4.93501V9.05335C1.75078 9.33158 1.83146 9.60374 1.98244 9.83745C2.13342 10.0712 2.34835 10.2566 2.60167 10.3717L6.335 12.1217C6.54248 12.2178 6.76841 12.2676 6.99708 12.2676C7.22575 12.2676 7.45168 12.2178 7.65917 12.1217L11.3925 10.3717C11.6451 10.2583 11.8601 10.075 12.012 9.84351C12.1639 9.612 12.2465 9.34189 12.25 9.06501V4.93501C12.247 4.68824 12.1786 4.44668 12.0517 4.23501ZM6.83083 2.95168C6.88424 2.92856 6.94181 2.91663 7 2.91663C7.05819 2.91663 7.11576 2.92856 7.16917 2.95168L10.2783 4.39834L7 5.92084L3.72167 4.39834L6.83083 2.95168ZM3.09167 9.33335C3.04088 9.31365 2.99711 9.27927 2.96594 9.2346C2.93477 9.18992 2.91762 9.13698 2.91667 9.08251V5.30835L6.41667 6.93585V10.8558L3.09167 9.33335ZM10.9025 9.33335L7.58333 10.8558V6.93585L11.0833 5.30835V9.06501C11.0847 9.12295 11.068 9.17988 11.0356 9.22794C11.0032 9.27601 10.9567 9.31283 10.9025 9.33335Z" fill="#0097FF"/>
</svg>
