<svg width="26" height="26" viewBox="0 0 26 26" fill="none" xmlns="http://www.w3.org/2000/svg">
<path d="M6.01252 6.71665C6.39791 6.53461 6.82668 6.4645 7.24998 6.5143C7.67328 6.5641 8.07407 6.73181 8.40669 6.99832L13.5417 11.245V8.43915C13.546 8.07314 13.6555 7.7161 13.8572 7.41065C14.0589 7.10521 14.3443 6.86429 14.6792 6.71665C15.0646 6.53461 15.4934 6.4645 15.9166 6.5143C16.3399 6.5641 16.7407 6.73181 17.0734 6.99832L22.5984 11.5592C22.815 11.7316 22.99 11.9508 23.1103 12.2002C23.2305 12.4497 23.293 12.723 23.293 13C23.293 13.2769 23.2305 13.5503 23.1103 13.7997C22.99 14.0492 22.815 14.2683 22.5984 14.4408L17.0734 19.0017C16.6751 19.3246 16.1778 19.5006 15.665 19.5C15.3248 19.498 14.9889 19.4241 14.6792 19.2833C14.3443 19.1357 14.0589 18.8948 13.8572 18.5893C13.6555 18.2839 13.546 17.9268 13.5417 17.5608V14.755L8.40669 19.0017C8.00844 19.3246 7.51111 19.5006 6.99836 19.5C6.65816 19.498 6.32221 19.4241 6.01252 19.2833C5.67758 19.1357 5.39222 18.8948 5.19051 18.5893C4.98881 18.2839 4.87928 17.9268 4.87502 17.5608V8.43915C4.87928 8.07314 4.98881 7.7161 5.19051 7.41065C5.39222 7.10521 5.67758 6.86429 6.01252 6.71665Z" fill="#242526"/>
</svg>
