<svg width="26" height="26" viewBox="0 0 26 26" fill="none" xmlns="http://www.w3.org/2000/svg">
<path d="M19.9875 6.71665C19.6021 6.53461 19.1733 6.4645 18.75 6.5143C18.3267 6.5641 17.9259 6.73181 17.5933 6.99832L12.4583 11.245V8.43915C12.454 8.07314 12.3445 7.7161 12.1428 7.41065C11.9411 7.10521 11.6557 6.86429 11.3208 6.71665C10.9354 6.53461 10.5066 6.4645 10.0834 6.5143C9.66006 6.5641 9.25926 6.73181 8.92664 6.99832L3.40164 11.5592C3.18498 11.7316 3.01001 11.9508 2.88975 12.2002C2.76949 12.4497 2.70703 12.723 2.70703 13C2.70703 13.2769 2.76949 13.5503 2.88975 13.7997C3.01001 14.0492 3.18498 14.2683 3.40164 14.4408L8.92664 19.0017C9.3249 19.3246 9.82222 19.5006 10.335 19.5C10.6752 19.498 11.0111 19.4241 11.3208 19.2833C11.6557 19.1357 11.9411 18.8948 12.1428 18.5893C12.3445 18.2839 12.454 17.9268 12.4583 17.5608V14.755L17.5933 19.0017C17.9916 19.3246 18.4889 19.5006 19.0016 19.5C19.3418 19.498 19.6778 19.4241 19.9875 19.2833C20.3224 19.1357 20.6078 18.8948 20.8095 18.5893C21.0112 18.2839 21.1207 17.9268 21.125 17.5608V8.43915C21.1207 8.07314 21.0112 7.7161 20.8095 7.41065C20.6078 7.10521 20.3224 6.86429 19.9875 6.71665Z" fill="#242526"/>
</svg>
