<svg width="22" height="22" viewBox="0 0 22 22" fill="none" xmlns="http://www.w3.org/2000/svg">
<path d="M11.8616 20.1667H10.1291C9.72065 20.1667 9.32895 20.0045 9.04014 19.7157C8.75134 19.4268 8.58909 19.0351 8.58909 18.6267V17.6275C8.58412 17.5687 8.56253 17.5124 8.52682 17.4654C8.49112 17.4183 8.44277 17.3823 8.38742 17.3617C8.33133 17.3258 8.26611 17.3067 8.1995 17.3067C8.13289 17.3067 8.06767 17.3258 8.01159 17.3617L7.33325 18.095C7.19096 18.2383 7.02173 18.3521 6.8353 18.4297C6.64888 18.5073 6.44894 18.5472 6.247 18.5472C6.04507 18.5472 5.84513 18.5073 5.6587 18.4297C5.47227 18.3521 5.30304 18.2383 5.16075 18.095L3.90492 16.8667C3.75955 16.7247 3.6441 16.555 3.56538 16.3677C3.48667 16.1803 3.44627 15.9791 3.44659 15.7759C3.44717 15.3602 3.6119 14.9616 3.90492 14.6667L4.58325 13.9884C4.616 13.9379 4.63343 13.879 4.63343 13.8188C4.63343 13.7586 4.616 13.6997 4.58325 13.6492C4.52825 13.5117 4.43659 13.4109 4.30825 13.4109H3.37325C2.96398 13.4085 2.57229 13.2442 2.28375 12.9539C1.9952 12.6636 1.83324 12.271 1.83325 11.8617V10.1292C1.83325 9.72077 1.9955 9.32907 2.28431 9.04026C2.57311 8.75146 2.96482 8.58921 3.37325 8.58921H4.37242C4.43129 8.58424 4.48753 8.56265 4.5346 8.52695C4.58166 8.49124 4.61761 8.44289 4.63825 8.38754C4.67419 8.33145 4.69329 8.26624 4.69329 8.19962C4.69329 8.13301 4.67419 8.0678 4.63825 8.01171L3.90492 7.33337C3.76163 7.19109 3.64791 7.02185 3.5703 6.83543C3.4927 6.649 3.45275 6.44906 3.45275 6.24712C3.45275 6.04519 3.4927 5.84525 3.5703 5.65882C3.64791 5.47239 3.76163 5.30316 3.90492 5.16087L5.13325 3.90504C5.27387 3.76036 5.44201 3.64528 5.62777 3.56657C5.81353 3.48785 6.01317 3.4471 6.21492 3.44671C6.42231 3.4458 6.62784 3.48581 6.81975 3.56446C7.01165 3.64311 7.18615 3.75885 7.33325 3.90504L8.01159 4.58337C8.06208 4.61612 8.12098 4.63355 8.18117 4.63355C8.24136 4.63355 8.30025 4.61612 8.35075 4.58337C8.48825 4.52837 8.58909 4.43671 8.58909 4.30837V3.37337C8.59151 2.9641 8.75579 2.57241 9.04605 2.28387C9.33632 1.99532 9.72897 1.83337 10.1383 1.83337H11.9166C12.325 1.83337 12.7167 1.99562 13.0055 2.28443C13.2943 2.57324 13.4566 2.96494 13.4566 3.37337V4.37254C13.4615 4.43141 13.4831 4.48765 13.5188 4.53472C13.5546 4.58178 13.6029 4.61773 13.6583 4.63837C13.7143 4.67431 13.7796 4.69341 13.8462 4.69341C13.9128 4.69341 13.978 4.67431 14.0341 4.63837L14.6666 3.90504C14.8089 3.76175 14.9781 3.64803 15.1645 3.57043C15.351 3.49282 15.5509 3.45287 15.7528 3.45287C15.9548 3.45287 16.1547 3.49282 16.3411 3.57043C16.5276 3.64803 16.6968 3.76175 16.8391 3.90504L18.0949 5.13337C18.2399 5.27569 18.355 5.44544 18.4337 5.63272C18.5124 5.82 18.5531 6.02107 18.5533 6.22421C18.5577 6.43073 18.5192 6.63592 18.4403 6.82683C18.3615 7.01774 18.2438 7.19022 18.0949 7.33337L17.4166 8.01171C17.3838 8.0622 17.3664 8.1211 17.3664 8.18129C17.3664 8.24148 17.3838 8.30038 17.4166 8.35087C17.4716 8.48837 17.5633 8.58921 17.6916 8.58921H18.6908C19.0888 8.60807 19.4642 8.77957 19.7391 9.06808C20.0139 9.35659 20.167 9.73991 20.1666 10.1384V11.9167C20.1666 12.3251 20.0043 12.7168 19.7155 13.0057C19.4267 13.2945 19.035 13.4567 18.6266 13.4567H17.6274C17.5686 13.4617 17.5123 13.4833 17.4652 13.519C17.4182 13.5547 17.3822 13.603 17.3616 13.6584C17.3288 13.7089 17.3114 13.7678 17.3114 13.828C17.3114 13.8881 17.3288 13.947 17.3616 13.9975L18.0674 14.7034C18.2107 14.8457 18.3244 15.0149 18.402 15.2013C18.4796 15.3877 18.5196 15.5877 18.5196 15.7896C18.5196 15.9916 18.4796 16.1915 18.402 16.3779C18.3244 16.5644 18.2107 16.7336 18.0674 16.8759L16.8666 18.095C16.726 18.2397 16.5578 18.3548 16.3721 18.4335C16.1863 18.5122 15.9867 18.553 15.7849 18.5534C15.3756 18.548 14.9844 18.3836 14.6941 18.095L13.9883 17.4167C13.9378 17.384 13.8789 17.3665 13.8187 17.3665C13.7585 17.3665 13.6996 17.384 13.6491 17.4167C13.5116 17.4717 13.4108 17.5634 13.4108 17.6917V18.6909C13.3919 19.0889 13.2204 19.4643 12.9319 19.7392C12.6434 20.014 12.2601 20.1672 11.8616 20.1667ZM10.4224 18.3334H11.5774V17.6275C11.5813 17.2048 11.7106 16.7928 11.9488 16.4436C12.1871 16.0944 12.5236 15.8237 12.9158 15.6659C13.3095 15.4938 13.7456 15.4428 14.1685 15.5195C14.5913 15.5963 14.9817 15.7972 15.2899 16.0967L15.7849 16.5917L16.5916 15.785L16.0966 15.2809C15.799 14.9773 15.5983 14.5922 15.5199 14.1744C15.4416 13.7566 15.4891 13.3249 15.6566 12.9342C15.8158 12.5438 16.0871 12.2092 16.4362 11.9726C16.7853 11.7361 17.1966 11.6082 17.6183 11.605H18.3333V10.4225H17.6274C17.2047 10.4186 16.7926 10.2894 16.4434 10.0511C16.0942 9.81289 15.8236 9.47638 15.6658 9.08421C15.4936 8.69043 15.4427 8.25432 15.5194 7.83148C15.5961 7.40864 15.7971 7.01823 16.0966 6.71004L16.5916 6.21504L15.7849 5.40837L15.2808 5.90337C14.9725 6.18494 14.5902 6.37257 14.1789 6.44416C13.7676 6.51576 13.3444 6.46834 12.9591 6.30749C12.5739 6.14665 12.2426 5.87907 12.0043 5.53626C11.766 5.19346 11.6306 4.7897 11.6141 4.37254V3.66671H10.4224V4.37254C10.4185 4.79526 10.2893 5.20731 10.051 5.55652C9.81277 5.90573 9.47625 6.17638 9.08409 6.33421C8.69031 6.50633 8.2542 6.55728 7.83136 6.48054C7.40851 6.40381 7.01811 6.20288 6.70992 5.90337L6.21492 5.40837L5.40825 6.21504L5.90325 6.71921C6.18482 7.02746 6.37245 7.40975 6.44404 7.82105C6.51564 8.23236 6.46822 8.65556 6.30737 9.04082C6.14653 9.42608 5.87895 9.75737 5.53614 9.99566C5.19334 10.234 4.78958 10.3693 4.37242 10.3859H3.66659V11.5409H4.37242C4.79514 11.5448 5.20719 11.674 5.5564 11.9123C5.9056 12.1505 6.17626 12.487 6.33409 12.8792C6.50621 13.273 6.55715 13.7091 6.48042 14.1319C6.40369 14.5548 6.20276 14.9452 5.90325 15.2534L5.40825 15.7484L6.21492 16.555L6.71909 16.06C7.02734 15.7785 7.40962 15.5908 7.82093 15.5193C8.23224 15.4477 8.65544 15.4951 9.0407 15.6559C9.42596 15.8168 9.75725 16.0843 9.99554 16.4272C10.2338 16.77 10.3692 17.1737 10.3858 17.5909L10.4224 18.3334Z" fill="#ADADAD"/>
<path d="M11.0001 14.2083C10.3655 14.2083 9.74524 14.0201 9.21763 13.6676C8.69002 13.3151 8.2788 12.814 8.03597 12.2277C7.79314 11.6415 7.7296 10.9964 7.8534 10.374C7.97719 9.75169 8.28276 9.18002 8.73145 8.73133C9.18014 8.28263 9.75181 7.97707 10.3742 7.85327C10.9965 7.72948 11.6416 7.79302 12.2279 8.03585C12.8141 8.27868 13.3152 8.6899 13.6677 9.21751C14.0203 9.74511 14.2084 10.3654 14.2084 11C14.2084 11.8509 13.8704 12.6669 13.2687 13.2686C12.667 13.8703 11.851 14.2083 11.0001 14.2083ZM11.0001 9.62496C10.7281 9.62496 10.4623 9.7056 10.2362 9.85669C10.0101 10.0078 9.83382 10.2225 9.72975 10.4738C9.62568 10.725 9.59845 11.0015 9.6515 11.2682C9.70456 11.5349 9.83551 11.7799 10.0278 11.9722C10.2201 12.1645 10.4651 12.2955 10.7318 12.3485C10.9986 12.4016 11.275 12.3744 11.5263 12.2703C11.7775 12.1662 11.9923 11.99 12.1434 11.7639C12.2944 11.5378 12.3751 11.2719 12.3751 11C12.3751 10.6353 12.2302 10.2856 11.9724 10.0277C11.7145 9.76983 11.3648 9.62496 11.0001 9.62496Z" fill="#ADADAD"/>
</svg>
