<svg width="26" height="26" viewBox="0 0 26 26" fill="none" xmlns="http://www.w3.org/2000/svg">
<path d="M11.3313 19.5C10.9911 19.498 10.6552 19.4241 10.3455 19.2833C10.0106 19.1357 9.72521 18.8948 9.5235 18.5893C9.32179 18.2839 9.21227 17.9268 9.20801 17.5608V8.43915C9.21227 8.07314 9.32179 7.7161 9.5235 7.41065C9.72521 7.10521 10.0106 6.86429 10.3455 6.71665C10.7309 6.53461 11.1597 6.4645 11.583 6.5143C12.0063 6.5641 12.4071 6.73181 12.7397 6.99832L18.2647 11.5591C18.4813 11.7316 18.6563 11.9508 18.7766 12.2002C18.8968 12.4497 18.9593 12.723 18.9593 13C18.9593 13.2769 18.8968 13.5503 18.7766 13.7997C18.6563 14.0492 18.4813 14.2683 18.2647 14.4408L12.7397 19.0017C12.3414 19.3246 11.8441 19.5006 11.3313 19.5Z" fill="#242526"/>
</svg>
