<svg width="14" height="14" viewBox="0 0 14 14" fill="none" xmlns="http://www.w3.org/2000/svg">
<path d="M11.5149 4.85917L8.34158 1.35917C8.28705 1.29874 8.22046 1.2504 8.14612 1.21724C8.07178 1.18409 7.99132 1.16686 7.90992 1.16667H3.82659C3.63277 1.16436 3.4404 1.20025 3.26046 1.27229C3.08052 1.34433 2.91653 1.4511 2.77786 1.58653C2.63919 1.72195 2.52855 1.88336 2.45226 2.06154C2.37598 2.23972 2.33554 2.43119 2.33325 2.625V11.375C2.33554 11.5688 2.37598 11.7603 2.45226 11.9385C2.52855 12.1166 2.63919 12.2781 2.77786 12.4135C2.91653 12.5489 3.08052 12.6557 3.26046 12.7277C3.4404 12.7998 3.63277 12.8356 3.82659 12.8333H10.1733C10.3671 12.8356 10.5594 12.7998 10.7394 12.7277C10.9193 12.6557 11.0833 12.5489 11.222 12.4135C11.3606 12.2781 11.4713 12.1166 11.5476 11.9385C11.6239 11.7603 11.6643 11.5688 11.6666 11.375V5.25C11.6662 5.10543 11.6122 4.96615 11.5149 4.85917ZM10.2958 5.25H7.99742C7.87716 5.23816 7.76637 5.17956 7.6889 5.08681C7.61143 4.99407 7.57349 4.87461 7.58325 4.75417V2.33334H7.64742L10.2958 5.25ZM10.1733 11.6667H3.82659C3.78597 11.669 3.74529 11.6634 3.70687 11.65C3.66845 11.6366 3.63306 11.6157 3.60271 11.5886C3.57236 11.5615 3.54766 11.5287 3.53002 11.4921C3.51238 11.4554 3.50215 11.4156 3.49992 11.375V2.625C3.50215 2.58438 3.51238 2.5446 3.53002 2.50794C3.54766 2.47128 3.57236 2.43846 3.60271 2.41136C3.63306 2.38427 3.66845 2.36343 3.70687 2.35004C3.74529 2.33665 3.78597 2.33097 3.82659 2.33334H6.41658V4.75417C6.40717 5.18387 6.56811 5.59984 6.86427 5.91131C7.16044 6.22278 7.56779 6.40445 7.99742 6.41667H10.4999V11.375C10.4977 11.4156 10.4875 11.4554 10.4698 11.4921C10.4522 11.5287 10.4275 11.5615 10.3971 11.5886C10.3668 11.6157 10.3314 11.6366 10.293 11.65C10.2545 11.6634 10.2139 11.669 10.1733 11.6667Z" fill="#0097FF"/>
</svg>
