<svg width="14" height="14" viewBox="0 0 14 14" fill="none" xmlns="http://www.w3.org/2000/svg">
<path d="M12.2501 6.62085C12.2434 6.51238 12.2065 6.40794 12.1437 6.31931C12.0808 6.23067 11.9944 6.16136 11.8943 6.11918L10.6401 5.58251L11.9584 4.82418C12.0519 4.77042 12.1286 4.69181 12.1801 4.59707C12.2316 4.50234 12.2558 4.39518 12.2501 4.28751C12.2434 4.17905 12.2065 4.07461 12.1437 3.98597C12.0808 3.89733 11.9944 3.82802 11.8943 3.78585L7.22759 1.79668C7.15562 1.7662 7.07825 1.75049 7.00009 1.75049C6.92193 1.75049 6.84456 1.7662 6.77259 1.79668L2.10593 3.78585C2.00577 3.82802 1.91939 3.89733 1.85652 3.98597C1.79365 4.07461 1.75679 4.17905 1.75009 4.28751C1.74436 4.39518 1.76858 4.50234 1.82007 4.59707C1.87156 4.69181 1.94829 4.77042 2.04176 4.82418L3.36009 5.58251L2.10593 6.11918C2.00577 6.16136 1.91939 6.23067 1.85652 6.31931C1.79365 6.40794 1.75679 6.51238 1.75009 6.62085C1.74436 6.72852 1.76858 6.83567 1.82007 6.93041C1.87156 7.02514 1.94829 7.10375 2.04176 7.15751L3.36009 7.91585L2.10593 8.45251C2.00577 8.49469 1.91939 8.564 1.85652 8.65264C1.79365 8.74128 1.75679 8.84572 1.75009 8.95418C1.74436 9.06185 1.76858 9.169 1.82007 9.26374C1.87156 9.35848 1.94829 9.43709 2.04176 9.49085L6.70843 12.1742C6.7971 12.2254 6.8977 12.2523 7.00009 12.2523C7.10249 12.2523 7.20308 12.2254 7.29176 12.1742L11.9584 9.49085C12.0519 9.43709 12.1286 9.35848 12.1801 9.26374C12.2316 9.169 12.2558 9.06185 12.2501 8.95418C12.2434 8.84572 12.2065 8.74128 12.1437 8.65264C12.0808 8.564 11.9944 8.49469 11.8943 8.45251L10.6401 7.91585L11.9584 7.15751C12.0519 7.10375 12.1286 7.02514 12.1801 6.93041C12.2316 6.83567 12.2558 6.72852 12.2501 6.62085ZM7.00009 2.96918L10.3601 4.39835L7.00009 6.32918L3.64009 4.39835L7.00009 2.96918ZM6.70843 7.50751C6.7971 7.55871 6.8977 7.58567 7.00009 7.58567C7.10249 7.58567 7.20308 7.55871 7.29176 7.50751L9.37426 6.34085L10.3601 6.76085L7.00009 8.66251L3.64009 6.73168L4.62593 6.31168L6.70843 7.50751ZM10.3601 9.06501L7.00009 10.9958L3.64009 9.06501L4.62593 8.64501L6.70843 9.84085C6.7971 9.89205 6.8977 9.919 7.00009 9.919C7.10249 9.919 7.20308 9.89205 7.29176 9.84085L9.37426 8.64501L10.3601 9.06501Z" fill="#0097FF"/>
</svg>
