<svg width="14" height="14" viewBox="0 0 14 14" fill="none" xmlns="http://www.w3.org/2000/svg">
<path d="M7.00008 6.41667C7.46157 6.41667 7.9127 6.27982 8.29641 6.02343C8.68013 5.76704 8.9792 5.40262 9.1558 4.97626C9.3324 4.5499 9.37861 4.08075 9.28858 3.62812C9.19855 3.1755 8.97632 2.75974 8.65 2.43342C8.32367 2.1071 7.90791 1.88487 7.45529 1.79484C7.00267 1.7048 6.53351 1.75101 6.10715 1.92762C5.68079 2.10422 5.31638 2.40329 5.05999 2.787C4.8036 3.17072 4.66675 3.62184 4.66675 4.08333C4.66675 4.70217 4.91258 5.29567 5.35017 5.73325C5.78775 6.17084 6.38124 6.41667 7.00008 6.41667ZM7.00008 2.91667C7.23083 2.91667 7.45639 2.98509 7.64825 3.11329C7.8401 3.24148 7.98964 3.42369 8.07794 3.63687C8.16624 3.85005 8.18935 4.08463 8.14433 4.31094C8.09931 4.53725 7.9882 4.74513 7.82504 4.90829C7.66188 5.07145 7.454 5.18257 7.22769 5.22758C7.00138 5.2726 6.7668 5.2495 6.55362 5.16119C6.34044 5.07289 6.15823 4.92336 6.03003 4.7315C5.90184 4.53964 5.83341 4.31408 5.83341 4.08333C5.83341 3.77392 5.95633 3.47717 6.17512 3.25838C6.39392 3.03958 6.69066 2.91667 7.00008 2.91667Z" fill="#0097FF"/>
<path d="M7.00008 7.58334C5.91711 7.58334 4.8785 8.01355 4.11273 8.77932C3.34696 9.5451 2.91675 10.5837 2.91675 11.6667C2.91675 11.8214 2.97821 11.9698 3.0876 12.0792C3.197 12.1886 3.34537 12.25 3.50008 12.25C3.65479 12.25 3.80316 12.1886 3.91256 12.0792C4.02196 11.9698 4.08341 11.8214 4.08341 11.6667C4.08341 10.8931 4.39071 10.1513 4.93769 9.60428C5.48467 9.0573 6.22653 8.75001 7.00008 8.75001C7.77363 8.75001 8.5155 9.0573 9.06248 9.60428C9.60946 10.1513 9.91675 10.8931 9.91675 11.6667C9.91675 11.8214 9.97821 11.9698 10.0876 12.0792C10.197 12.1886 10.3454 12.25 10.5001 12.25C10.6548 12.25 10.8032 12.1886 10.9126 12.0792C11.022 11.9698 11.0834 11.8214 11.0834 11.6667C11.0834 10.5837 10.6532 9.5451 9.88743 8.77932C9.12166 8.01355 8.08305 7.58334 7.00008 7.58334Z" fill="#0097FF"/>
</svg>
