<svg width="14" height="14" viewBox="0 0 14 14" fill="none" xmlns="http://www.w3.org/2000/svg">
<path d="M12.6351 2.47916C12.519 2.37719 12.3672 2.32545 12.213 2.33529C12.0588 2.34513 11.9148 2.41576 11.8126 2.53166L10.7217 3.78583L10.3542 3.37166C10.2514 3.25563 10.1066 3.18522 9.9518 3.17592C9.79701 3.16662 9.64486 3.21919 9.52882 3.32208C9.41279 3.42496 9.34238 3.56972 9.33308 3.72451C9.32379 3.87931 9.37636 4.03146 9.47924 4.14749L10.2901 5.05749C10.3453 5.11865 10.4128 5.16743 10.4882 5.20061C10.5636 5.23379 10.6452 5.25062 10.7276 5.24999C10.8094 5.24906 10.8901 5.23093 10.9645 5.19676C11.0389 5.16259 11.1052 5.11315 11.1592 5.05166L12.6817 3.30166C12.7844 3.18631 12.8372 3.03495 12.8284 2.88076C12.8197 2.72658 12.7501 2.58216 12.6351 2.47916Z" fill="#0097FF"/>
<path d="M5.83333 6.41667C6.29482 6.41667 6.74595 6.27982 7.12966 6.02343C7.51338 5.76704 7.81245 5.40262 7.98905 4.97626C8.16566 4.5499 8.21186 4.08075 8.12183 3.62812C8.0318 3.1755 7.80957 2.75974 7.48325 2.43342C7.15693 2.1071 6.74117 1.88487 6.28854 1.79484C5.83592 1.7048 5.36677 1.75101 4.94041 1.92762C4.51404 2.10422 4.14963 2.40329 3.89324 2.787C3.63685 3.17072 3.5 3.62184 3.5 4.08333C3.5 4.70217 3.74583 5.29567 4.18342 5.73325C4.621 6.17084 5.21449 6.41667 5.83333 6.41667ZM5.83333 2.91667C6.06408 2.91667 6.28964 2.98509 6.4815 3.11329C6.67336 3.24148 6.82289 3.42369 6.91119 3.63687C6.9995 3.85005 7.0226 4.08463 6.97758 4.31094C6.93257 4.53725 6.82145 4.74513 6.65829 4.90829C6.49513 5.07145 6.28725 5.18257 6.06094 5.22758C5.83463 5.2726 5.60005 5.2495 5.38687 5.16119C5.17369 5.07289 4.99148 4.92336 4.86329 4.7315C4.73509 4.53964 4.66667 4.31408 4.66667 4.08333C4.66667 3.77392 4.78958 3.47717 5.00838 3.25838C5.22717 3.03958 5.52391 2.91667 5.83333 2.91667Z" fill="#0097FF"/>
<path d="M5.83333 7.58334C4.75037 7.58334 3.71175 8.01355 2.94598 8.77932C2.18021 9.5451 1.75 10.5837 1.75 11.6667C1.75 11.8214 1.81146 11.9698 1.92085 12.0792C2.03025 12.1886 2.17862 12.25 2.33333 12.25C2.48804 12.25 2.63642 12.1886 2.74581 12.0792C2.85521 11.9698 2.91667 11.8214 2.91667 11.6667C2.91667 10.8931 3.22396 10.1513 3.77094 9.60428C4.31792 9.0573 5.05979 8.75001 5.83333 8.75001C6.60688 8.75001 7.34875 9.0573 7.89573 9.60428C8.44271 10.1513 8.75 10.8931 8.75 11.6667C8.75 11.8214 8.81146 11.9698 8.92085 12.0792C9.03025 12.1886 9.17862 12.25 9.33333 12.25C9.48804 12.25 9.63642 12.1886 9.74581 12.0792C9.85521 11.9698 9.91667 11.8214 9.91667 11.6667C9.91667 10.5837 9.48646 9.5451 8.72069 8.77932C7.95491 8.01355 6.9163 7.58334 5.83333 7.58334Z" fill="#0097FF"/>
</svg>
