<svg width="26" height="26" viewBox="0 0 26 26" fill="none" xmlns="http://www.w3.org/2000/svg">
<path d="M8.66679 6.49998C8.95411 6.49998 9.22966 6.61412 9.43283 6.81728C9.63599 7.02045 9.75013 7.296 9.75013 7.58332V11.7216L9.9018 11.5592L15.4268 6.99832C15.7594 6.73181 16.1602 6.5641 16.5835 6.5143C17.0068 6.4645 17.4356 6.53461 17.821 6.71665C18.1458 6.87215 18.4199 7.11646 18.6116 7.4213C18.8033 7.72614 18.9048 8.07904 18.9043 8.43915V17.5608C18.9048 17.9209 18.8033 18.2738 18.6116 18.5787C18.4199 18.8835 18.1458 19.1278 17.821 19.2833C17.5113 19.4241 17.1753 19.498 16.8351 19.5C16.3224 19.5006 15.825 19.3246 15.4268 19.0017L9.9018 14.4408L9.75013 14.2783V18.4167C9.75013 18.704 9.63599 18.9795 9.43283 19.1827C9.22966 19.3858 8.95411 19.5 8.66679 19.5C8.37948 19.5 8.10393 19.3858 7.90076 19.1827C7.6976 18.9795 7.58346 18.704 7.58346 18.4167V7.58332C7.58346 7.296 7.6976 7.02045 7.90076 6.81728C8.10393 6.61412 8.37948 6.49998 8.66679 6.49998Z" fill="#242526"/>
</svg>
