<svg width="26" height="34" viewBox="0 0 26 34" fill="none" xmlns="http://www.w3.org/2000/svg">
<path d="M5.765 33.5C4.90141 33.4949 4.04864 33.3075 3.2625 32.95C2.41227 32.5752 1.68789 31.9637 1.17586 31.1883C0.663837 30.413 0.385816 29.5066 0.375 28.5775V5.42251C0.385816 4.49341 0.663837 3.58706 1.17586 2.81171C1.68789 2.03636 2.41227 1.42478 3.2625 1.05001C4.24079 0.587917 5.32922 0.40994 6.40374 0.536354C7.47826 0.662769 8.49567 1.08849 9.34 1.76501L23.365 13.3425C23.915 13.7804 24.3591 14.3366 24.6644 14.9698C24.9697 15.6031 25.1283 16.297 25.1283 17C25.1283 17.703 24.9697 18.3969 24.6644 19.0302C24.3591 19.6634 23.915 20.2197 23.365 20.6575L9.34 32.235C8.32905 33.0549 7.06661 33.5016 5.765 33.5Z" fill="#0097FF"/>
</svg>
