<svg width="36" height="36" viewBox="0 0 36 36" fill="none" xmlns="http://www.w3.org/2000/svg">
<path d="M29.61 10.995L22.95 3.49503C22.8098 3.33964 22.6386 3.21532 22.4474 3.13007C22.2562 3.04482 22.0493 3.00052 21.84 3.00003H9.84C9.34162 2.99408 8.84696 3.08637 8.38425 3.27161C7.92154 3.45685 7.49986 3.73143 7.14327 4.07966C6.78669 4.42788 6.50219 4.84294 6.30603 5.30113C6.10986 5.75931 6.00587 6.25165 6 6.75003V29.25C6.00587 29.7484 6.10986 30.2407 6.30603 30.6989C6.50219 31.1571 6.78669 31.5722 7.14327 31.9204C7.49986 32.2686 7.92154 32.5432 8.38425 32.7284C8.84696 32.9137 9.34162 33.006 9.84 33H26.16C26.6584 33.006 27.153 32.9137 27.6158 32.7284C28.0785 32.5432 28.5001 32.2686 28.8567 31.9204C29.2133 31.5722 29.4978 31.1571 29.694 30.6989C29.8901 30.2407 29.9941 29.7484 30 29.25V12C29.999 11.6283 29.8601 11.2701 29.61 10.995ZM21 6.00003L26.61 12H22.11C21.9529 11.9905 21.7993 11.9499 21.6581 11.8804C21.5169 11.8109 21.391 11.714 21.2877 11.5953C21.1843 11.4766 21.1057 11.3385 21.0563 11.1891C21.0069 11.0397 20.9878 10.8819 21 10.725V6.00003Z" fill="#0097FF"/>
</svg>
