<svg width="14" height="14" viewBox="0 0 14 14" fill="none" xmlns="http://www.w3.org/2000/svg">
<path d="M6.4809 13.4167C6.41326 13.4166 6.34615 13.4047 6.28257 13.3817C6.15992 13.3368 6.05589 13.252 5.98714 13.1409C5.9184 13.0299 5.88891 12.899 5.9034 12.7692L6.35257 8.63334H2.91673C2.81076 8.6335 2.70674 8.60479 2.61586 8.55029C2.52497 8.49579 2.45065 8.41756 2.40087 8.324C2.3511 8.23045 2.32775 8.1251 2.33333 8.01927C2.33891 7.91344 2.37322 7.81114 2.43257 7.72334L7.03507 0.840006C7.10786 0.732286 7.21455 0.651971 7.3382 0.611811C7.46185 0.571651 7.59537 0.573949 7.71757 0.618339C7.83504 0.661951 7.93534 0.74223 8.00363 0.847292C8.07192 0.952353 8.10457 1.07661 8.09673 1.20167L7.64757 5.36667H11.0834C11.1894 5.36651 11.2934 5.39522 11.3843 5.44972C11.4752 5.50422 11.5495 5.58245 11.5993 5.67601C11.649 5.76957 11.6724 5.87491 11.6668 5.98074C11.6612 6.08657 11.6269 6.18887 11.5676 6.27667L6.96507 13.16C6.91156 13.2392 6.83942 13.304 6.755 13.3487C6.67058 13.3935 6.57645 13.4168 6.4809 13.4167ZM4.00757 7.46667H7.00007C7.08147 7.46687 7.16193 7.48409 7.23627 7.51724C7.31061 7.5504 7.37719 7.59874 7.43173 7.65917C7.48678 7.72042 7.52824 7.79263 7.55337 7.87106C7.57851 7.94948 7.58675 8.03233 7.57757 8.11417L7.31507 10.535L9.99257 6.53334H7.00007C6.91775 6.53384 6.83626 6.51691 6.76095 6.48367C6.68565 6.45043 6.61823 6.40162 6.56313 6.34046C6.50803 6.2793 6.4665 6.20718 6.44127 6.12882C6.41604 6.05047 6.40768 5.96766 6.41673 5.88584L6.67923 3.46501L4.00757 7.46667Z" fill="#0097FF"/>
</svg>
