<svg width="14" height="14" viewBox="0 0 14 14" fill="none" xmlns="http://www.w3.org/2000/svg">
<path d="M8.16675 1.75V4.08333C8.16675 4.23804 8.22821 4.38642 8.3376 4.49581C8.447 4.60521 8.59537 4.66667 8.75008 4.66667H11.0834" stroke="#0097FF" stroke-linecap="round" stroke-linejoin="round"/>
<path d="M9.91675 12.25H4.08341C3.774 12.25 3.47725 12.1271 3.25846 11.9083C3.03966 11.6895 2.91675 11.3928 2.91675 11.0833V2.91667C2.91675 2.60725 3.03966 2.3105 3.25846 2.09171C3.47725 1.87292 3.774 1.75 4.08341 1.75H8.16675L11.0834 4.66667V11.0833C11.0834 11.3928 10.9605 11.6895 10.7417 11.9083C10.5229 12.1271 10.2262 12.25 9.91675 12.25Z" stroke="#0097FF" stroke-linecap="round" stroke-linejoin="round"/>
<path d="M6.41675 8.16669H7.00008V10.5H7.58341" stroke="#0097FF" stroke-linecap="round" stroke-linejoin="round"/>
<path d="M7 6.41669H7.00583" stroke="#0097FF" stroke-linecap="round" stroke-linejoin="round"/>
</svg>
