<svg width="32" height="32" viewBox="0 0 32 32" fill="none" xmlns="http://www.w3.org/2000/svg">
<path d="M17.7199 12.3867L12.3866 17.72C12.2616 17.844 12.1624 17.9914 12.0947 18.1539C12.027 18.3164 11.9922 18.4907 11.9922 18.6667C11.9922 18.8427 12.027 19.017 12.0947 19.1795C12.1624 19.3419 12.2616 19.4894 12.3866 19.6134C12.5105 19.7383 12.658 19.8375 12.8205 19.9052C12.983 19.9729 13.1572 20.0078 13.3333 20.0078C13.5093 20.0078 13.6835 19.9729 13.846 19.9052C14.0085 19.8375 14.156 19.7383 14.2799 19.6134L19.6133 14.28C19.8643 14.029 20.0054 13.6884 20.0054 13.3334C20.0054 12.9783 19.8643 12.6378 19.6133 12.3867C19.3622 12.1356 19.0217 11.9946 18.6666 11.9946C18.3115 11.9946 17.971 12.1356 17.7199 12.3867Z" fill="#0097FF"/>
<path d="M16.3734 23.2L14.6667 24.8934C13.7086 25.8806 12.4206 26.4806 11.0484 26.579C9.67622 26.6774 8.31583 26.2672 7.22671 25.4267C6.65107 24.9523 6.18133 24.3625 5.84783 23.6953C5.51433 23.0282 5.32448 22.2984 5.29055 21.5533C5.25663 20.8082 5.37937 20.0642 5.65087 19.3695C5.92236 18.6748 6.33656 18.0447 6.86671 17.52L8.76004 15.6134C8.88501 15.4894 8.9842 15.3419 9.0519 15.1795C9.11959 15.017 9.15444 14.8427 9.15444 14.6667C9.15444 14.4907 9.11959 14.3164 9.0519 14.1539C8.9842 13.9914 8.88501 13.844 8.76004 13.72C8.63609 13.595 8.48862 13.4959 8.32614 13.4282C8.16366 13.3605 7.98939 13.3256 7.81337 13.3256C7.63736 13.3256 7.46308 13.3605 7.30061 13.4282C7.13813 13.4959 6.99066 13.595 6.86671 13.72L5.17337 15.4267C3.74692 16.808 2.87016 18.66 2.70586 20.6389C2.54157 22.6178 3.10091 24.589 4.28004 26.1867C4.97988 27.0946 5.86489 27.8432 6.87629 28.3828C7.88769 28.9223 9.00232 29.2405 10.1461 29.3162C11.29 29.3918 12.4368 29.2233 13.5105 28.8216C14.5841 28.42 15.56 27.7945 16.3734 26.9867L18.2667 25.0934C18.5178 24.8423 18.6588 24.5018 18.6588 24.1467C18.6588 23.7916 18.5178 23.4511 18.2667 23.2C18.0156 22.9489 17.6751 22.8079 17.32 22.8079C16.965 22.8079 16.6244 22.9489 16.3734 23.2Z" fill="#0097FF"/>
<path d="M26.2132 4.29336C24.6046 3.10198 22.6172 2.53695 20.6224 2.7038C18.6275 2.87065 16.7616 3.75797 15.3732 5.20003L13.9332 6.6667C13.7686 6.78635 13.631 6.93922 13.5293 7.11544C13.4275 7.29165 13.3639 7.48726 13.3425 7.68962C13.3211 7.89198 13.3425 8.09657 13.4052 8.29015C13.4679 8.48373 13.5706 8.66198 13.7066 8.81336C13.8305 8.93833 13.978 9.03753 14.1405 9.10522C14.3029 9.17291 14.4772 9.20776 14.6532 9.20776C14.8292 9.20776 15.0035 9.17291 15.166 9.10522C15.3285 9.03753 15.4759 8.93833 15.5999 8.81336L17.3332 7.0667C18.286 6.07512 19.5725 5.47181 20.9441 5.37331C22.3157 5.27481 23.6752 5.6881 24.7599 6.53336C25.3398 7.00777 25.8133 7.59904 26.1494 8.26865C26.4856 8.93826 26.6769 9.67119 26.7109 10.4197C26.7448 11.1681 26.6207 11.9154 26.3466 12.6127C26.0724 13.31 25.6545 13.9417 25.1199 14.4667L23.2266 16.3734C23.1016 16.4973 23.0024 16.6448 22.9347 16.8073C22.867 16.9697 22.8322 17.144 22.8322 17.32C22.8322 17.496 22.867 17.6703 22.9347 17.8328C23.0024 17.9953 23.1016 18.1427 23.2266 18.2667C23.3505 18.3917 23.498 18.4909 23.6605 18.5586C23.8229 18.6262 23.9972 18.6611 24.1732 18.6611C24.3492 18.6611 24.5235 18.6262 24.686 18.5586C24.8485 18.4909 24.996 18.3917 25.1199 18.2667L27.0132 16.3734C27.8188 15.5602 28.4423 14.5851 28.8426 13.5127C29.2429 12.4404 29.4108 11.2952 29.3352 10.1531C29.2596 9.01097 28.9421 7.89795 28.4039 6.88775C27.8657 5.87755 27.119 4.99323 26.2132 4.29336Z" fill="#0097FF"/>
</svg>
