<svg width="24" height="24" viewBox="0 0 24 24" fill="none" xmlns="http://www.w3.org/2000/svg">
<path d="M12 13C12.2652 13 12.5196 12.8946 12.7071 12.7071C12.8946 12.5196 13 12.2652 13 12V2C13 1.73478 12.8946 1.48043 12.7071 1.29289C12.5196 1.10536 12.2652 1 12 1C11.7348 1 11.4804 1.10536 11.2929 1.29289C11.1054 1.48043 11 1.73478 11 2V12C11 12.2652 11.1054 12.5196 11.2929 12.7071C11.4804 12.8946 11.7348 13 12 13Z" fill="black"/>
<path d="M16.59 3.11002C16.354 2.98802 16.0791 2.96478 15.8259 3.04542C15.5728 3.12607 15.362 3.30398 15.24 3.54002C15.118 3.77606 15.0948 4.0509 15.1754 4.30407C15.2561 4.55725 15.434 4.76802 15.67 4.89002C17.2635 5.71269 18.5343 7.04688 19.2785 8.67844C20.0228 10.31 20.1972 12.1443 19.7739 13.8869C19.3506 15.6295 18.3541 17.1794 16.9444 18.2877C15.5346 19.396 13.7933 19.9985 12 19.9985C10.2067 19.9985 8.46544 19.396 7.05566 18.2877C5.64588 17.1794 4.64937 15.6295 4.22607 13.8869C3.80277 12.1443 3.97725 10.31 4.72148 8.67844C5.46572 7.04688 6.73656 5.71269 8.33001 4.89002C8.44688 4.82961 8.55072 4.74677 8.63558 4.64624C8.72044 4.5457 8.78467 4.42943 8.8246 4.30407C8.86453 4.17872 8.87938 4.04672 8.86829 3.91562C8.85721 3.78453 8.82041 3.65689 8.76001 3.54002C8.6996 3.42314 8.61676 3.31931 8.51622 3.23445C8.41569 3.14958 8.29942 3.08535 8.17406 3.04542C8.0487 3.0055 7.91671 2.99065 7.78561 3.00173C7.65451 3.01281 7.52688 3.04961 7.41001 3.11002C5.4187 4.1388 3.83074 5.80675 2.90098 7.84617C1.97121 9.88559 1.75355 12.1782 2.28292 14.3562C2.81229 16.5342 4.058 18.4711 5.82013 19.8563C7.58226 21.2414 9.75864 21.9944 12 21.9944C14.2414 21.9944 16.4178 21.2414 18.1799 19.8563C19.942 18.4711 21.1877 16.5342 21.7171 14.3562C22.2465 12.1782 22.0288 9.88559 21.099 7.84617C20.1693 5.80675 18.5813 4.1388 16.59 3.11002Z" fill="black"/>
</svg>
