<svg width="26" height="26" viewBox="0 0 26 26" fill="none" xmlns="http://www.w3.org/2000/svg">
<path d="M17.3332 6.49998C17.0459 6.49998 16.7703 6.61412 16.5672 6.81728C16.364 7.02045 16.2499 7.296 16.2499 7.58332V11.7216L16.0982 11.5592L10.5732 6.99832C10.2406 6.73181 9.83979 6.5641 9.4165 6.5143C8.9932 6.4645 8.56443 6.53461 8.17904 6.71665C7.85423 6.87215 7.5801 7.11646 7.38838 7.4213C7.19666 7.72614 7.09518 8.07904 7.09571 8.43915V17.5608C7.09518 17.9209 7.19666 18.2738 7.38838 18.5787C7.5801 18.8835 7.85423 19.1278 8.17904 19.2833C8.48873 19.4241 8.82467 19.498 9.16487 19.5C9.67763 19.5006 10.175 19.3246 10.5732 19.0017L16.0982 14.4408L16.2499 14.2783V18.4167C16.2499 18.704 16.364 18.9795 16.5672 19.1827C16.7703 19.3858 17.0459 19.5 17.3332 19.5C17.6205 19.5 17.8961 19.3858 18.0992 19.1827C18.3024 18.9795 18.4165 18.704 18.4165 18.4167V7.58332C18.4165 7.296 18.3024 7.02045 18.0992 6.81728C17.8961 6.61412 17.6205 6.49998 17.3332 6.49998Z" fill="#242526"/>
</svg>
